# xmcd
# Copyright (C) 1995-1998 Ti Kan
#
# Track frame offsets:
#       150
#       13392
#       31097
#       46473
#       64671
#       83622
#       102014
#       119899
#       136058
#       154574
#       175970
#       194515
#       212016
#       230843
#
# Disc length: 3336 seconds
#
# Revision: 0
# Processed by: cddbd v1.5.2PL0 Copyright (c) Steve Scherf et al.
# Submitted via: CD-Transfer v1.0
#
DISCID=be0d060e
DTITLE=In Extremo - 
DYEAR=09
DGENRE=
TTITLE0=7 Köche
TTITLE1=Sängerkrieg
TTITLE2=Neues Glück
TTITLE3=En Esta Noche
TTITLE4=Mein Sehnen
TTITLE5=Flaschenpost
TTITLE6=Requiem
TTITLE7=Frei Zu Sein
TTITLE8=Zauberspruch
TTITLE9=In Diesem Licht
TTITLE10=Tanz Mit Mir
TTITLE11=An End Has A Start
TTITLE12=Mein Liebster Feind
TTITLE13=Auf's Leben
EXTD=
EXTT0=
EXTT1=
EXTT2=
EXTT3=
EXTT4=
EXTT5=
EXTT6=
EXTT7=
EXTT8=
EXTT9=
EXTT10=
EXTT11=
EXTT12=
EXTT13=
PLAYORDER=
